<?xml version="1.0" standalone="no"?><!DOCTYPE svg PUBLIC "-//W3C//DTD SVG 1.1//EN" "http://www.w3.org/Graphics/SVG/1.1/DTD/svg11.dtd"><svg t="1616981416913" class="icon" viewBox="0 0 1024 1024" version="1.1" xmlns="http://www.w3.org/2000/svg" p-id="2055" xmlns:xlink="http://www.w3.org/1999/xlink" width="200" height="200"><defs><style type="text/css"></style></defs><path d="M511.73 65.86C265.47 65.86 65.1 266.23 65.1 512.49s200.37 446.63 446.63 446.63 446.63-200.37 446.63-446.63S758 65.86 511.73 65.86z m0 824.55c-208.37 0-377.92-169.54-377.92-377.92s169.54-377.92 377.92-377.92 377.92 169.54 377.92 377.92-169.54 377.92-377.92 377.92z" fill="#000000" p-id="2056"></path><path d="M727.31 597.36c-16.42-9.53-37.44-3.87-46.95 12.5-34.76 60.03-99.38 97.32-168.63 97.32-71.17 0-136.64-38.81-170.89-101.3-9.13-16.66-30.06-22.7-46.64-13.62-16.64 9.13-22.75 29.99-13.62 46.64 46.3 84.5 134.87 137 231.14 137 93.7 0 181.09-50.42 228.08-131.59 9.52-16.45 3.93-37.45-12.49-46.95z" fill="#000000" p-id="2057"></path></svg>
