<?xml version="1.0" standalone="no"?><!DOCTYPE svg PUBLIC "-//W3C//DTD SVG 1.1//EN"
  "http://www.w3.org/Graphics/SVG/1.1/DTD/svg11.dtd">
<svg t="1616473045983" class="icon" viewBox="0 0 1024 1024" version="1.1" xmlns="http://www.w3.org/2000/svg" p-id="2042"
     xmlns:xlink="http://www.w3.org/1999/xlink" width="16" height="16">
  <defs>
    <style type="text/css"></style>
  </defs>
  <path
    d="M512 192c17.673 0 32 14.327 32 32v256h256c17.673 0 32 14.327 32 32 0 17.673-14.327 32-32 32H544v256c0 17.673-14.327 32-32 32-17.673 0-32-14.327-32-32V544H224c-17.673 0-32-14.327-32-32 0-17.673 14.327-32 32-32h256V224c0-17.673 14.327-32 32-32z"
    fill="#343131" p-id="2043"></path>
</svg>
